<mxfile host="Electron" agent="Mozilla/5.0 (Windows NT 10.0; Win64; x64) AppleWebKit/537.36 (KHTML, like Gecko) draw.io/26.0.15 Chrome/132.0.6834.196 Electron/34.2.0 Safari/537.36" version="26.0.15">
  <diagram name="Page-1" id="oa4Z5VVlaHeQQChztNJ8">
    <mxGraphModel dx="934" dy="658" grid="0" gridSize="10" guides="1" tooltips="1" connect="1" arrows="1" fold="1" page="1" pageScale="1" pageWidth="1700" pageHeight="1100" math="0" shadow="0">
      <root>
        <mxCell id="0" />
        <mxCell id="1" parent="0" />
        <mxCell id="J3gBMhDcrmMcFsN0KSRi-1" value="" style="whiteSpace=wrap;html=1;aspect=fixed;fillColor=#dae8fc;strokeColor=#6c8ebf;" vertex="1" parent="1">
          <mxGeometry x="673" y="319" width="406" height="406" as="geometry" />
        </mxCell>
        <mxCell id="J3gBMhDcrmMcFsN0KSRi-2" value="" style="endArrow=classic;html=1;rounded=0;entryX=0;entryY=0.25;entryDx=0;entryDy=0;" edge="1" parent="1">
          <mxGeometry width="50" height="50" relative="1" as="geometry">
            <mxPoint x="400" y="419.5" as="sourcePoint" />
            <mxPoint x="673" y="419.0000000000002" as="targetPoint" />
          </mxGeometry>
        </mxCell>
        <mxCell id="J3gBMhDcrmMcFsN0KSRi-3" value="" style="endArrow=classic;html=1;rounded=0;entryX=0;entryY=0.25;entryDx=0;entryDy=0;" edge="1" parent="1">
          <mxGeometry width="50" height="50" relative="1" as="geometry">
            <mxPoint x="400" y="499" as="sourcePoint" />
            <mxPoint x="673" y="499" as="targetPoint" />
          </mxGeometry>
        </mxCell>
        <mxCell id="J3gBMhDcrmMcFsN0KSRi-4" value="" style="endArrow=classic;html=1;rounded=0;entryX=0;entryY=0.25;entryDx=0;entryDy=0;" edge="1" parent="1">
          <mxGeometry width="50" height="50" relative="1" as="geometry">
            <mxPoint x="1079" y="492.5" as="sourcePoint" />
            <mxPoint x="1352" y="492.0000000000002" as="targetPoint" />
          </mxGeometry>
        </mxCell>
        <mxCell id="J3gBMhDcrmMcFsN0KSRi-5" value="" style="endArrow=classic;html=1;rounded=0;entryX=0;entryY=0.25;entryDx=0;entryDy=0;" edge="1" parent="1">
          <mxGeometry width="50" height="50" relative="1" as="geometry">
            <mxPoint x="1079" y="589.5" as="sourcePoint" />
            <mxPoint x="1352" y="589.0000000000002" as="targetPoint" />
          </mxGeometry>
        </mxCell>
        <mxCell id="J3gBMhDcrmMcFsN0KSRi-6" value="&lt;font style=&quot;font-size: 29px;&quot;&gt;&lt;b&gt;Priority Encoder823_m&lt;/b&gt;&lt;/font&gt;" style="text;html=1;align=center;verticalAlign=middle;resizable=0;points=[];autosize=1;strokeColor=none;fillColor=none;" vertex="1" parent="1">
          <mxGeometry x="709" y="503" width="334" height="47" as="geometry" />
        </mxCell>
        <mxCell id="J3gBMhDcrmMcFsN0KSRi-7" value="&lt;font style=&quot;font-size: 22px;&quot;&gt;enable&lt;/font&gt;" style="text;html=1;align=center;verticalAlign=middle;resizable=0;points=[];autosize=1;strokeColor=none;fillColor=none;" vertex="1" parent="1">
          <mxGeometry x="311" y="399" width="84" height="38" as="geometry" />
        </mxCell>
        <mxCell id="J3gBMhDcrmMcFsN0KSRi-8" value="&lt;font style=&quot;font-size: 22px;&quot;&gt;data_in&lt;/font&gt;" style="text;html=1;align=center;verticalAlign=middle;resizable=0;points=[];autosize=1;strokeColor=none;fillColor=none;" vertex="1" parent="1">
          <mxGeometry x="308" y="479" width="90" height="38" as="geometry" />
        </mxCell>
        <mxCell id="J3gBMhDcrmMcFsN0KSRi-9" value="" style="endArrow=none;html=1;rounded=0;" edge="1" parent="1">
          <mxGeometry width="50" height="50" relative="1" as="geometry">
            <mxPoint x="508" y="506.5" as="sourcePoint" />
            <mxPoint x="544" y="489.5" as="targetPoint" />
          </mxGeometry>
        </mxCell>
        <mxCell id="J3gBMhDcrmMcFsN0KSRi-10" value="&lt;font style=&quot;font-size: 18px;&quot;&gt;8&lt;/font&gt;" style="text;html=1;align=center;verticalAlign=middle;resizable=0;points=[];autosize=1;strokeColor=none;fillColor=none;" vertex="1" parent="1">
          <mxGeometry x="502" y="465" width="28" height="34" as="geometry" />
        </mxCell>
        <mxCell id="J3gBMhDcrmMcFsN0KSRi-11" value="&lt;font style=&quot;font-size: 22px;&quot;&gt;encoded_out&lt;/font&gt;" style="text;html=1;align=center;verticalAlign=middle;resizable=0;points=[];autosize=1;strokeColor=none;fillColor=none;" vertex="1" parent="1">
          <mxGeometry x="1352" y="471" width="145" height="38" as="geometry" />
        </mxCell>
        <mxCell id="J3gBMhDcrmMcFsN0KSRi-12" value="&lt;font style=&quot;font-size: 22px;&quot;&gt;valid&lt;/font&gt;" style="text;html=1;align=center;verticalAlign=middle;resizable=0;points=[];autosize=1;strokeColor=none;fillColor=none;" vertex="1" parent="1">
          <mxGeometry x="1355" y="569" width="63" height="38" as="geometry" />
        </mxCell>
        <mxCell id="J3gBMhDcrmMcFsN0KSRi-13" value="" style="endArrow=none;html=1;rounded=0;" edge="1" parent="1">
          <mxGeometry width="50" height="50" relative="1" as="geometry">
            <mxPoint x="1188" y="499" as="sourcePoint" />
            <mxPoint x="1224" y="482" as="targetPoint" />
          </mxGeometry>
        </mxCell>
        <mxCell id="J3gBMhDcrmMcFsN0KSRi-14" value="&lt;font style=&quot;font-size: 18px;&quot;&gt;3&lt;/font&gt;" style="text;html=1;align=center;verticalAlign=middle;resizable=0;points=[];autosize=1;strokeColor=none;fillColor=none;" vertex="1" parent="1">
          <mxGeometry x="1182" y="457.5" width="28" height="34" as="geometry" />
        </mxCell>
      </root>
    </mxGraphModel>
  </diagram>
</mxfile>
